<svg width="138" height="32" fill="none" xmlns="http://www.w3.org/2000/svg"><circle cx="16" cy="16" r="14.5" stroke="#111" stroke-width="3"/><circle cx="22" cy="22" r="5.5" stroke="#111" stroke-width="3"/><path d="m8 12 5 5m-1-9 5 5" stroke="#111" stroke-width="3"/><path d="M59.773 8v16h-2.921L49.89 13.93h-.118V24H46.39V8h2.968l6.907 10.063h.14V8h3.367Zm2.795 16V8h10.594v2.79h-7.21v3.812h6.507v2.789h-6.508V24h-3.383Zm12.26-13.21V8h13.14v2.79H83.07V24h-3.343V10.79h-4.899ZM91.062 24l-3.265-12h3.367l1.86 8.063h.109L95.07 12h3.305l1.969 8.016h.101L102.273 12h3.36l-3.258 12h-3.523l-2.063-7.547h-.148L94.578 24h-3.516Zm21.467.234c-1.213 0-2.263-.257-3.148-.773a5.293 5.293 0 0 1-2.039-2.172c-.479-.932-.719-2.013-.719-3.242 0-1.24.24-2.323.719-3.25a5.23 5.23 0 0 1 2.039-2.172c.885-.52 1.935-.781 3.148-.781 1.214 0 2.261.26 3.141.781a5.217 5.217 0 0 1 2.047 2.172c.479.927.719 2.01.719 3.25 0 1.229-.24 2.31-.719 3.242a5.28 5.28 0 0 1-2.047 2.172c-.88.516-1.927.773-3.141.773Zm.016-2.578c.552 0 1.013-.156 1.383-.468.37-.318.648-.75.836-1.297.192-.547.289-1.17.289-1.868 0-.697-.097-1.32-.289-1.867-.188-.547-.466-.979-.836-1.297-.37-.317-.831-.476-1.383-.476-.557 0-1.026.159-1.406.476-.375.318-.659.75-.852 1.297-.187.547-.281 1.17-.281 1.867 0 .698.094 1.32.281 1.868.193.547.477.979.852 1.297.38.312.849.468 1.406.468ZM122.666 24 119.4 12h3.368l1.859 8.063h.109L126.674 12h3.305l1.968 8.016h.102L133.877 12h3.359l-3.257 12h-3.524l-2.062-7.547h-.149L126.182 24h-3.516Z" fill="#111"/></svg>